<svg xmlns="http://www.w3.org/2000/svg" viewBox="0 0 512 512" width="512" height="512">
  <rect width="512" height="512" rx="80" fill="#0c0a09"/>
  <!-- Left upper wing -->
  <path d="M256 256 C200 200 120 160 80 100 C60 70 80 30 120 50 C170 75 220 140 256 200 Z"
        fill="#3b82f6" opacity="0.9"/>
  <!-- Right upper wing -->
  <path d="M256 256 C312 200 392 160 432 100 C452 70 432 30 392 50 C342 75 292 140 256 200 Z"
        fill="#3b82f6" opacity="0.9"/>
  <!-- Left lower wing -->
  <path d="M256 256 C210 290 150 320 110 380 C90 410 110 450 145 430 C190 405 235 340 256 290 Z"
        fill="#60a5fa" opacity="0.85"/>
  <!-- Right lower wing -->
  <path d="M256 256 C302 290 362 320 402 380 C422 410 402 450 367 430 C322 405 277 340 256 290 Z"
        fill="#60a5fa" opacity="0.85"/>
  <!-- Body -->
  <ellipse cx="256" cy="270" rx="10" ry="80" fill="#e7e5e4"/>
  <!-- Antennae -->
  <path d="M250 195 Q230 150 215 130" stroke="#a8a29e" stroke-width="4" fill="none" stroke-linecap="round"/>
  <circle cx="212" cy="127" r="6" fill="#f59e0b"/>
  <path d="M262 195 Q282 150 297 130" stroke="#a8a29e" stroke-width="4" fill="none" stroke-linecap="round"/>
  <circle cx="300" cy="127" r="6" fill="#f59e0b"/>
</svg>
